<svg xml:space="preserve" style="max-height: 500px" viewBox="247.6 759.6 1492 492" y="0px" x="0px" xmlns:xlink="http://www.w3.org/1999/xlink" xmlns="http://www.w3.org/2000/svg" id="Layer_1" version="1.1" width="1492" height="492">
<style type="text/css">
	.st0{display:none;fill:#F2E5D1;}
	.st1{fill:#022648;}
	.st2{display:none;fill:#022648;}
	.st3{fill:#F2E5D1;}
</style>
<rect height="2000" width="2000" class="st2"/>
<g>
	<path d="M575.5,1071.35v119.73c0,7.15-2.32,13.04-7.06,17.78c-4.64,4.65-10.63,6.97-17.69,6.97&#xA;&#9;&#9;c-7.15,0-13.04-2.32-17.78-6.97c-4.74-4.74-7.06-10.63-7.06-17.78v-119.73c0-18.41-3.39-33.51-10.18-45.21&#xA;&#9;&#9;c-6.88-11.71-15.99-20.37-27.52-26c-11.53-5.72-24.75-8.49-39.68-8.49c-13.58,0-25.92,2.68-36.9,8.22&#xA;&#9;&#9;c-11.08,5.54-19.83,12.87-26.36,22.16c-6.43,9.2-9.65,19.84-9.65,31.81v137.24c0,7.15-2.32,13.04-6.88,17.78&#xA;&#9;&#9;c-4.47,4.65-10.54,6.97-17.96,6.97c-7.16,0-13.05-2.32-17.78-6.97c-4.65-4.74-7.06-10.63-7.06-17.78V860.22&#xA;&#9;&#9;c0-7.42,2.41-13.4,7.06-17.96c4.73-4.55,10.63-6.79,17.78-6.79c7.42,0,13.49,2.23,17.96,6.79c4.55,4.56,6.88,10.54,6.88,17.96&#xA;&#9;&#9;v119.01c7.16-7.06,15.46-13.13,24.75-18.32c17.24-9.38,36.54-14.03,57.89-14.03c22.43,0,42.44,4.74,60.14,14.3&#xA;&#9;&#9;c17.6,9.56,31.63,23.59,41.81,42.08C570.41,1021.76,575.5,1044.46,575.5,1071.35z" class="st3"/>
	<path d="M746.01,1217.33c-23.67,0-44.92-5.91-63.73-17.76c-18.81-11.84-33.65-27.89-44.51-48.16&#xA;&#9;&#9;c-10.87-20.27-16.3-43.21-16.3-68.84c0-25.61,5.92-48.65,17.76-69.08c11.84-20.43,27.9-36.56,48.17-48.4&#xA;&#9;&#9;c20.26-11.84,43.05-17.76,68.35-17.76c25.3,0,47.99,5.92,68.11,17.76c20.1,11.84,36.07,27.97,47.91,48.4&#xA;&#9;&#9;c11.84,20.44,17.76,43.47,17.76,69.08h-18.97c0,25.62-5.44,48.57-16.3,68.84c-10.87,20.27-25.71,36.32-44.51,48.16&#xA;&#9;&#9;C790.93,1211.42,769.69,1217.33,746.01,1217.33z M755.74,1173.55c16.54,0,31.3-3.97,44.27-11.92&#xA;&#9;&#9;c12.97-7.94,23.18-18.81,30.64-32.59c7.46-13.78,11.19-29.27,11.19-46.46c0-17.51-3.73-33.16-11.19-46.94&#xA;&#9;&#9;c-7.46-13.78-17.68-24.65-30.64-32.59c-12.98-7.94-27.73-11.92-44.27-11.92c-16.22,0-30.89,3.97-44.02,11.92&#xA;&#9;&#9;c-13.14,7.95-23.52,18.81-31.14,32.59c-7.62,13.79-11.43,29.43-11.43,46.94c0,17.19,3.81,32.68,11.43,46.46&#xA;&#9;&#9;c7.62,13.79,18,24.65,31.14,32.59C724.85,1169.58,739.52,1173.55,755.74,1173.55z M864.72,1215.87c-7.14,0-13.06-2.35-17.76-7.05&#xA;&#9;&#9;c-4.7-4.7-7.06-10.62-7.06-17.76v-74.43l9.25-51.56l40.37,17.51v108.49c0,7.14-2.36,13.06-7.05,17.76&#xA;&#9;&#9;C877.76,1213.52,871.85,1215.87,864.72,1215.87z" class="st3"/>
	<path d="M965.14,1215.87c-7.14,0-13.06-2.35-17.76-7.05c-4.7-4.7-7.06-10.62-7.06-17.76V974.09&#xA;&#9;&#9;c0-7.46,2.36-13.45,7.06-18c4.69-4.54,10.62-6.81,17.76-6.81c7.45,0,13.45,2.27,18,6.81c4.54,4.55,6.81,10.54,6.81,18v216.97&#xA;&#9;&#9;c0,7.14-2.27,13.06-6.81,17.76C978.6,1213.52,972.59,1215.87,965.14,1215.87z M1165.08,1215.87c-7.14,0-13.05-2.35-17.76-7.05&#xA;&#9;&#9;c-4.7-4.7-7.05-10.62-7.05-17.76v-119.68c0-18.49-3.4-33.56-10.22-45.24c-6.81-11.67-15.98-20.35-27.49-26.02&#xA;&#9;&#9;c-11.52-5.67-24.74-8.51-39.65-8.51c-13.62,0-25.95,2.76-36.97,8.27c-11.03,5.52-19.79,12.89-26.27,22.14&#xA;&#9;&#9;c-6.49,9.24-9.73,19.87-9.73,31.86H959.3c0-20.43,4.94-38.67,14.83-54.73c9.89-16.06,23.43-28.78,40.63-38.19&#xA;&#9;&#9;c17.18-9.4,36.48-14.11,57.89-14.11c22.38,0,42.4,4.79,60.09,14.35c17.67,9.57,31.62,23.59,41.83,42.08&#xA;&#9;&#9;c10.22,18.49,15.33,41.19,15.33,68.1v119.68c0,7.14-2.36,13.06-7.06,17.76C1178.13,1213.52,1172.21,1215.87,1165.08,1215.87z" class="st3"/>
	<path d="M1365.15,1217.33c-25.3,0-48.09-5.91-68.35-17.76c-20.27-11.84-36.33-27.97-48.17-48.41&#xA;&#9;&#9;c-11.84-20.43-17.76-43.45-17.76-69.08c0-25.62,5.43-48.57,16.3-68.84c10.86-20.27,25.7-36.32,44.51-48.16&#xA;&#9;&#9;c18.81-11.84,40.06-17.76,63.73-17.76c19.14,0,36.8,3.97,53.03,11.91c16.22,7.95,29.84,18.73,40.87,32.35v-101.1&#xA;&#9;&#9;c0-7.46,2.35-13.46,7.05-18c4.69-4.54,10.62-6.81,17.76-6.81c7.46,0,13.45,2.27,18,6.81c4.54,4.55,6.81,10.54,6.81,18v191.58&#xA;&#9;&#9;c0,25.62-5.92,48.65-17.76,69.08c-11.84,20.44-27.81,36.57-47.91,48.41C1413.15,1211.42,1390.45,1217.33,1365.15,1217.33z&#xA;&#9;&#9; M1365.15,1173.55c16.54,0,31.3-3.97,44.27-11.92c12.97-7.94,23.18-18.89,30.64-32.84c7.46-13.94,11.2-29.51,11.2-46.7&#xA;&#9;&#9;c0-17.52-3.73-33.08-11.2-46.7c-7.46-13.62-17.68-24.4-30.64-32.35c-12.98-7.94-27.73-11.92-44.27-11.92&#xA;&#9;&#9;c-16.22,0-30.89,3.97-44.02,11.92c-13.14,7.95-23.52,18.73-31.14,32.35c-7.62,13.62-11.43,29.19-11.43,46.7&#xA;&#9;&#9;c0,17.19,3.81,32.76,11.43,46.7c7.62,13.95,18,24.89,31.14,32.84C1334.26,1169.58,1348.93,1173.55,1365.15,1173.55z" class="st3"/>
	<path d="M1640.01,1215.39c-14.28,0-26.93-3.89-37.95-11.67c-11.03-7.78-19.62-18.4-25.78-31.87&#xA;&#9;&#9;c-6.17-13.46-9.24-28.94-9.24-46.46V890.02c0-7.13,2.26-12.97,6.81-17.52c4.54-4.54,10.37-6.81,17.51-6.81&#xA;&#9;&#9;c7.13,0,12.97,2.27,17.51,6.81c4.54,4.55,6.81,10.38,6.81,17.52v235.36c0,12,2.27,21.89,6.81,29.67&#xA;&#9;&#9;c4.55,7.78,10.38,11.67,17.52,11.67h12.15c6.48,0,11.75,2.27,15.81,6.81c4.06,4.54,6.08,10.38,6.08,17.51&#xA;&#9;&#9;c0,7.14-3.08,12.98-9.24,17.51c-6.17,4.55-14.11,6.81-23.84,6.81H1640.01z" class="st3"/>
	<path d="M1449.42,936.4l-0.06-45.73l-0.03-22.86c-0.04-1.58,0.07-4.51,0.21-7.18c0.07-2.68,0.45-5.35,0.87-8.01&#xA;&#9;&#9;c0.79-5.32,2.15-10.59,4.06-15.63c7.4-20.31,22.97-37.29,42.54-46.45c19.6-9.28,42.56-10.4,62.98-3.18&#xA;&#9;&#9;c20.44,7.14,37.65,22.51,47.08,41.98c4.75,9.7,7.55,20.39,8.22,31.14c0.38,6.08,0.2,8.92,0.25,12.95l0.02,11.43l0.13,91.45&#xA;&#9;&#9;l-48.65,1.77l-0.89-93.22l-0.03-11.43c-0.02-3.59,0.03-8.39-0.17-9.88c-0.29-4.4-1.42-8.66-3.35-12.57&#xA;&#9;&#9;c-3.8-7.85-10.92-14.16-19.12-16.97c-8.15-2.87-17.68-2.4-25.42,1.34c-7.85,3.68-14.21,10.67-17.11,18.78&#xA;&#9;&#9;c-0.79,2.01-1.33,4.11-1.61,6.26c-0.17,1.06-0.38,2.13-0.34,3.24c-0.03,1.1-0.17,1.93-0.12,4.18l0.05,22.86l0.1,45.73H1449.42z" class="st3"/>
</g>
</svg>